<?xml version="1.0" encoding="UTF-8"?>
<svg id="Layer_1" data-name="Layer 1" xmlns="http://www.w3.org/2000/svg" viewBox="0 0 576 576">
  <defs>
    <style>
      .cls-1 {
        fill: #231f20;
      }
    </style>
  </defs>
  <path class="cls-1" d="M354.63,241.4c-23.75-12.09-20.84-117.03.34-143.19,21.17-26.16,65.12,24.05,65.12,24.05,0,0,75.71-18.85,75.71,25.67s-117.42,105.56-141.17,93.47Z"/>
  <polygon class="cls-1" points="91.29 121.12 108.47 242.95 182.46 241.14 196.26 118.85 205.24 113.87 207.01 97.57 154.2 96.94 147.21 43.92 124.43 43.92 136.73 96.91 80.2 97.57 84.64 114.42 91.29 121.12"/>
  <path class="cls-1" d="M123.99,528.75l-.93-132.42c-24.82,0-36.49-65.01,3.94-65.01s28.6,65.01,5.82,65.01l4.07,132.42h-12.9Z"/>
  <path class="cls-1" d="M175.17,331.32s-5.71,66.79,18.18,66.79l1.55,133.97h14.02l-3.83-133.97c24.39,0,17.21-66.79,17.21-66.79l-16.43,26.49-7.14-26.49-7.49,26.49-16.08-26.49Z"/>
  <path class="cls-1" d="M316.55,421.55s-19.07-63.85,83.36-63.18,85.8,63.18,85.8,63.18l-15.52,2.88,15.52,9.98-15.52,6.65s15.53-.97,15.52,10.52-15.52,10.77-15.52,10.77l15.52,6.52c6.46,6.75.62,31.39-7.11,36.02-13.47,8.09-44.14,12.65-76.7,12.65-38.3,0-68.62-2.77-80.77-12.65-4.09-3.33-9.02-25.92-4.59-36.02l15.96-6.52s-15.3,3.66-15.96-8.2,15.96-11.97,15.96-11.97l-15.96-7.56,15.96-7.07-15.96-5.99Z"/>
</svg>