<?xml version="1.0" encoding="UTF-8"?>
<svg id="Layer_1" xmlns="http://www.w3.org/2000/svg" xmlns:serif="http://www.serif.com/" version="1.1" viewBox="0 0 1280 1024">
  <!-- Generator: Adobe Illustrator 30.3.0, SVG Export Plug-In . SVG Version: 2.1.3 Build 182)  -->
  <defs>
    <style>
      .st0 {
        fill-rule: evenodd;
      }
    </style>
  </defs>
  <circle cx="935.92" cy="197.94" r="171.43"/>
  <circle cx="1050.21" cy="528.46" r="114.29"/>
  <circle cx="609.98" cy="114.29" r="114.29"/>
  <path class="st0" d="M495.7,261.79c-210.25,0-380.95,170.7-380.95,380.95v304.76c0,20.21,8.03,39.59,22.32,53.88,14.29,14.29,33.67,22.32,53.88,22.32h304.76c210.25,0,380.95-170.7,380.95-380.95s-170.7-380.95-380.95-380.95ZM495.7,814.17c-94.68,0-171.43-76.75-171.43-171.43s76.75-171.43,171.43-171.43,171.43,76.75,171.43,171.43-76.75,171.43-171.43,171.43Z"/>
</svg>