<?xml version="1.0" encoding="UTF-8"?>
<svg id="Dan_s_Logo" data-name="Dan s Logo" xmlns="http://www.w3.org/2000/svg" viewBox="0 0 576 576">
  <defs>
    <style>
      .cls-1 {
        fill: #e7234f;
      }

      .cls-2 {
        fill: #27b1e6;
      }
    </style>
  </defs>
  <g>
    <path class="cls-2" d="M357.62,88.51s4.25-15.19,4.6-16.4l-.95-15.11s7.07-.7,13.24-1.61,14.85,2.94,14.85,2.94l-5.95,19.44s-6.47,3.12-12.48,4.9-13.3,5.84-13.3,5.84h0Z"/>
    <polygon class="cls-2" points="339.53 163.87 343.21 150.68 345.66 140.54 357.17 136.58 370.85 131.87 367.28 145.02 364.16 156.7 351.8 160.61 339.53 163.87"/>
    <path class="cls-2" d="M353.53,108.49c.41-2.2.92-6.54.92-6.54,0,0,8.07-1.45,13.73-3.95s13.07-4.86,13.07-4.86c0,0-2.49,6.91-3.2,10.6l-3.34,11.74s-8.1,2.28-10.82,3.54l-12.8,4.51s1.88-12.11,2.43-15.04h0Z"/>
  </g>
  <g>
    <path class="cls-2" d="M177.93,273.96l23.81-10.1c6.11-2.59,12.66-3.98,19.3-4.08l25.12-.39c5.36-.08,10.67-1,15.75-2.73l24.32-8.27c7.42-2.52,15.31-3.31,23.08-2.32l20.2,2.59c7.41.95,14.93.27,22.05-1.98l31.44-9.95,1.74-16.47h.02s7.85-22.9,7.85-22.9c0,0-35.01,2.42-39.87,3.11.75-9.05,5.91-18.47,6.78-27.5,0,0-21.04,6.03-25.01,6.47-1.33,7.05-3.21,15.74-4.73,22.68-5.4.49-25.09,5.54-34.04,7.89-3.02.79-6.11,1.24-9.22,1.34l-32.92,1.05c-5,.16-9.93,1.22-14.55,3.13l-27.71,11.45c-2.8,1.15-5.71,2-8.69,2.52l-34.76,6.1,7.18,20.55,2.86,17.81Z"/>
    <path class="cls-2" d="M345.26,373.25c-6.74,1.97-13.86,2.27-20.75.88l-12.68-2.56c-8.55-1.72-17.41-.83-25.45,2.55l-15.48,6.53c-5.58,2.35-11.6,3.51-17.66,3.4l-15.89-.29c-7.35-.13-14.62,1.6-21.11,5.04l-18.29,9.69,20.3,126.32c1.39,8.88,9.1,15.4,18.09,15.3l98.55-1.09c9.23-.11,16.91-7.14,17.82-16.33l16.57-156.46-24.02,7.02Z"/>
  </g>
  <g>
    <path d="M154.34,325.31c1.92,3.16,2.78,5.52,2.05,6.6-.89,1.33-5.96,2.24-7.15,1.82s-5.51-5.74-5.96-11.5c11.52-13.1,70.88-54.13,87.54-24.16s-30.9,84.48-43.9,90.97c-4.82.06-10.1-8.62-10.25-9.93s3.89-4.79,5.23-4.7,5.12,3.02,5.12,3.02c0,0,50.72-51.44,35.32-74.67-15.4-23.22-68.02,22.55-68.02,22.55h.02Z"/>
    <path d="M373.26,354.88c-5.23-.51-13.81-15.86-8.27-15.43s9.46,2.99,9.46,2.99c0,0,10.65-.38,16.71-2.72s19.21-10.18,13.73-14.36-13.25-6.05-19.02-8.85c-8.49-4.11-19.56-13.73-12.02-27,2.71-4.77,10.03-11.09,16.65-14.47s15.33-6.03,20.97-6.98,8.08.95,8.7,3.9-3.9,10.72-7.23,13.53c-2.17,1.52-5.79-4.3-5.79-4.3-8.75-.12-19.38,7.86-22.82,12.14s-2.08,8.45,2.12,11.61,25.43,10.25,29.68,14.78,4.25,13.83-5.51,22.01-33.28,13.55-37.35,13.16h0Z"/>
    <path d="M343.23,340.23c-7.43.19-25.08-56.12-25.08-56.12,0,0,1.79,67.35-4.85,67.35s-10.07-87.63,1.45-87.66,26.93,52.81,26.93,52.81c0,0,7.38-50,15.32-49.4s-6.34,72.83-13.77,73.02h0Z"/>
    <path d="M254.33,295.46s2.34,60.89,1.3,63.64-5.35,5.77-8.56,3.89-4.27-76.18-2.53-81.81c1.46-4.73,6.34-7.84,12.11-2.99,3.34,2.8,45.76,63.13,45.76,67.61s-4.18,6.02-6.72,5.67-41.36-56-41.36-56h0Z"/>
    <path d="M286.3,321.32c-3.68,2.43-35.37,12.53-35.37,12.53l-3.43-9.67s45.58-16.2,47.07-14.95-4.59,9.66-8.27,12.09h0Z"/>
    <path d="M200.1,371l-8.16,5.59c-19.77-25.13-23.17-31.55-35.09-56l7.67-6.22c10.65,26.89,13.9,30.82,35.58,56.63Z"/>
  </g>
  <path class="cls-1" d="M371.17,271.49c-3.73-1.9-3.27-18.38.05-22.48s10.23,3.78,10.23,3.78c0,0,11.89-2.96,11.89,4.03s-18.44,16.58-22.17,14.68h0Z"/>
  <path class="cls-1" d="M227.59,161.9c.94,2.55,1.27,5.67.36,7.94-.98,2.07-3.02,3.66-5.11,4.99-2.24,1.41-4.66,3.03-7.2,4.21-2.95,1.29-5.85,3.08-8.64,4.59-3.32,1.87-7.04,3.53-9.44,6.74-1.59,2.07-2.86,4.43-3.85,6.83-.87,2.16-1.93,3.83-2.66,5.9-.75,2.31-.69,4.25-.78,7.23.11,3.22-.56,6.48-1.02,9.37-.42,2.86-.94,4.62-3.3,5.52-3.01,1.14-9.8.51-14.47-.57-3.16-.68-6.14-2.54-6.82-5.85-1.78-7.88,1.54-16.23,4.73-23.38,2.52-6.22,5.55-12.25,9.38-17.79,3.67-5.46,8.14-10.26,12.95-14.76,1.89-1.82,4.72-3.7,6.03-5.84.87-1.48.06-2.58-2-2.77-4.87-.3-9.03,2.81-13.52,4.57-2.1.84-4.8,1.44-6.61-.17-3.69-4.3-.29-11.45,1.23-16.29,2.68-7.14,5.44-14.17,8.5-21.16,6.3-14.52,17.12-28.31,32.62-33.38,7.83-2.31,16.66-1.29,24.72-.15,2.89.31,7.06,1.12,6.33-1.62-2.34-4.86-11.11-8.54-13.89-13.52-5.63-9.56-1.24-20.65,4.95-28.91,3.4-5.38,8.53-9.03,14.63-10.77,19.61-7.1,28.59-3.47,48.11-1.14,6.74,1.17,14.32-.91,20.64,1.86,2.9,1.54,5.84,4.33,6.16,7.72.09,4.23-9.29,4.92-11.39,6.64-3.48,2.3,4.91,3.85,6.39,4.55,6.44,1.82,11.35,5.77,15.21,10.98,2.76,3.88,3.57,8.81,3.58,13.84.23,2.04-1.04,9.03-3.8,5.35-1.61-2.3-2.2-6.55-3.79-9.23-.96-1.82-2.2-3.48-3.65-4.93-7.7-7.62-19.5-7.46-30.09-9.17-1.52-.25-3.22-.63-4.47-1.36-5.64-3.55-.42-10.78-9.59-13.04-13.52-4.38-42.56,6.12-32.11,23.85,4.01,5.87,9.83,11.03,15.26,15.43,3.14,2.19,6.54,6.07,3.77,9.77-3.47,4.55-9.93,7.63-15.08,8.56-3.93.68-7.53,2.52-11.22,3.99-6.35,2.64-14.02-.76-20.69,1.28-4.61.94-7.73,5.29-11.15,7.77-2.29,1.68-5.13,2.52-6.91,4.82-3,4.74-4.59,10.85-6.24,16.06-.85,2.95-1.88,5.75-1.34,7.69,1.1,3.45,4.82,3.67,8.32,4.47,3.95.73,7.26,1.79,9.92,4.45,2.78,2.69,5.46,5.28,6.99,8.66l.06.15v.02Z"/>
  <path class="cls-1" d="M331.52,129.34c-8.15,4.48-12.36-10.12-21.77-9.02-9.41,1.11-15.46,14.91-21.71,10.78s1.95-28.81,19.91-30.92,31.71,24.68,23.57,29.16h0Z"/>
  <path class="cls-1" d="M262.75,182.38c-12.69,5.48-16.4,22.71-21.61,19.79s8.28-39.69,33.99-39.69,22.3,23.55,9.77,24.47c-12.53.91-9.46-10.04-22.16-4.56h.01Z"/>
  <path class="cls-1" d="M394.79,183.91c-.68,3.31-3.66,5.17-6.82,5.85-4.66,1.07-8.87.87-11.88-.27-2.35-.9-2.96-7.55-1.37-12.69s5.73-2.84,6.54-6.55c2.19-10.03-8.7-27.73,2.52-16.52,1.64,1.64,6.24,8.8,8.19,13.57s3.87,11.97,2.82,16.6h0Z"/>
</svg>